Coordinates
version=1
nRows=14
nColumns=33
inDegrees=yes

Units are S.I. units (second, meters, Newtons, ...)
Angles are in degrees.

endheader
time	ground_thorax_rot_x	ground_thorax_rot_y	ground_thorax_rot_z	ground_thorax_tx	ground_thorax_ty	ground_thorax_tz	clav_prot_r	clav_elev_r	scapula_abduction_r	scapula_elevation_r	scapula_upward_rot_r	scapula_winging_r	shoulder_elv_r	plane_of_elev_r	axial_rot_r	elbow_flexion_r	pro_sup_r	wrist_flex_r	wrist_dev_r	clav_prot_l	clav_elev_l	scapula_abduction_l	scapula_elevation_l	scapula_upward_rot_l	scapula_winging_l	shoulder_elv_l	plane_of_elev_l	axial_rot_l	elbow_flexion_l	pro_sup_l	wrist_flex_l	wrist_dev_l
     10.99000000	    -34.19952146	    -23.07010810	     27.94459449	    -71.60328582	    837.92170552	    -42.41800227	     26.31593610	    -45.00000000	     38.81994143	    -45.00000000	    -45.00000000	  -4066.11392171	  -2623.63668099	    159.28562408	     33.97986061	    718.58201335	    154.00331110	     12.83496373	     15.38343641	     -0.58059582	     32.39413258	    -31.45776994	    -45.00000000	    -45.00000000	  -3873.23488563	  -1002.53577407	     27.27923943	     51.68403797	   1429.53945800	     34.41509491	     14.77826192	    -18.15742908
     11.00000000	    -34.29242897	    -23.03582532	     27.79289359	    -72.19065741	    839.16631057	    -42.53386270	     26.29395631	    -45.00000000	     38.82361021	    -45.00000000	    -45.00000000	  -4066.14383649	  -2623.63312559	    159.24431304	     33.78646196	    718.54935308	    153.53880955	     12.87407786	     15.31388811	     -0.58085198	     32.43280974	    -31.49467848	    -45.00000000	    -45.00000000	  -3873.16628217	  -1002.51698835	     27.32003047	     51.82400159	   1429.53852719	     34.23854298	     14.75806138	    -18.30446724
     11.01000000	    -34.33637277	    -22.91951569	     27.65833444	    -72.73483872	    840.37124651	    -42.64045748	     26.24285092	    -45.00000000	     38.86764015	    -45.00000000	    -45.00000000	  -4066.24745074	  -2623.56452550	    159.23984551	     33.58439112	    718.37469282	    153.16638103	     12.97365069	     15.30753834	     -0.57766905	     32.52256611	    -31.55410054	    -45.00000000	    -45.00000000	  -3873.18910594	  -1002.51744598	     27.37260060	     51.97489282	   1429.56529256	     34.06463542	     14.73702565	    -18.46779562
     11.02000000	    -34.45245218	    -22.94224684	     27.61996507	    -73.24303640	    841.53878428	    -42.74611635	     26.22081356	    -45.00000000	     38.75746863	    -45.00000000	    -45.00000000	  -4066.23027973	  -2623.63206857	    159.19089455	     33.35336069	    718.48911377	    152.83216531	     13.00670744	     15.17976616	     -0.57675544	     32.39648629	    -31.62109651	    -45.00000000	    -45.00000000	  -3872.98364215	  -1002.41941976	     27.44117975	     52.10051797	   1429.57022968	     33.90887694	     14.70906973	    -18.59413062
     11.03000000	    -34.49594544	    -22.96364831	     27.45704365	    -73.71241708	    842.66286101	    -42.85824885	     26.15192510	    -45.00000000	     38.81024745	    -45.00000000	    -45.00000000	  -4066.20315276	  -2623.56611469	    159.15185765	     33.23115635	    718.38567735	    152.56164433	     13.04045315	     15.24241448	     -0.59073105	     32.57813200	    -31.54212888	    -45.00000000	    -45.00000000	  -3873.13049028	  -1002.33621606	     27.32145825	     52.17683828	   1429.64583070	     33.76276194	     14.64624339	    -18.68597314
     11.04000000	    -34.57592132	    -22.93318392	     27.30626627	    -74.14424961	    843.74574864	    -42.98142536	     26.13054372	    -45.00000000	     38.84640635	    -45.00000000	    -45.00000000	  -4066.26847443	  -2623.61630968	    159.06238357	     33.01988023	    718.34570866	    152.28728572	     13.14478958	     15.15987633	     -0.61134995	     32.46046855	    -31.62801113	    -45.00000000	    -45.00000000	  -3872.94820334	  -1002.37379910	     27.48043631	     52.33200978	   1429.62360031	     33.67235638	     14.64192379	    -18.85925460
     11.05000000	    -34.48605030	    -22.70104058	     27.26185044	    -74.53959417	    844.78974596	    -43.11724353	     26.07419785	    -45.00000000	     38.90381643	    -45.00000000	    -45.00000000	  -4066.44953589	  -2623.42412458	    159.14748472	     32.66428517	    718.04570844	    152.06014748	     13.28193847	     15.28355889	     -0.62785472	     32.69172253	    -31.71964459	    -45.00000000	    -45.00000000	  -3873.15227935	  -1002.45837290	     27.44368694	     52.46438769	   1429.63345716	     33.64316201	     14.63910820	    -18.99332053
     11.06000000	    -34.67675937	    -22.84527127	     27.13154815	    -74.90402300	    845.79389112	    -43.26321939	     26.06810070	    -45.00000000	     38.80603855	    -45.00000000	    -45.00000000	  -4066.28646687	  -2623.64623585	    158.98591653	     32.55780281	    718.45592109	    151.83969022	     13.24585971	     15.03450812	     -0.58182251	     32.34631975	    -31.60787870	    -45.00000000	    -45.00000000	  -3872.77961582	  -1002.35045326	     27.67849090	     52.56054913	   1429.65177156	     33.67861967	     14.59851419	    -19.10640561
     11.07000000	    -34.68771804	    -22.82860100	     26.99657077	    -75.24499063	    846.75526337	    -43.41483432	     25.97434466	    -45.00000000	     38.85887272	    -45.00000000	    -45.00000000	  -4066.30760074	  -2623.53540444	    159.01900293	     32.43880574	    718.11759339	    151.68372934	     13.34054413	     15.31890087	     -0.67692510	     32.82655757	    -31.70580542	    -45.00000000	    -45.00000000	  -3873.09873150	  -1002.28348078	     27.27047993	     52.61407258	   1429.80969918	     33.74673480	     14.48693117	    -19.23282658
     11.08000000	    -34.64812308	    -22.75717403	     26.94089049	    -75.57068864	    847.66204780	    -43.56605070	     25.95231338	    -45.00000000	     38.90539196	    -45.00000000	    -45.00000000	  -4066.51503135	  -2623.57611382	    158.87719511	     32.08362409	    718.12986798	    151.44832282	     13.54169763	     14.94675065	     -0.56846095	     32.18851341	    -31.63029662	    -45.00000000	    -45.00000000	  -3872.66237832	  -1002.48144377	     27.93208490	     52.82790743	   1429.58446482	     33.93037367	     14.57968473	    -19.43594043
     11.09000000	    -34.70554858	    -22.84787156	     26.98829259	    -75.89285186	    848.51394910	    -43.71477227	     25.89991861	    -45.00000000	     38.73071903	    -45.00000000	    -45.00000000	  -4066.38199384	  -2623.46700418	    158.96557395	     31.96203933	    718.07822870	    151.36095154	     13.51408801	     15.19909727	     -0.63166908	     32.69054959	    -31.61264008	    -45.00000000	    -45.00000000	  -3872.99244960	  -1002.22194844	     27.48196145	     52.74242012	   1429.86002060	     34.10882938	     14.39841060	    -19.51538071
     11.10000000	    -34.82154905	    -22.77323077	     26.72778915	    -76.21382614	    849.29673950	    -43.85944279	     25.89712630	    -45.00000000	     38.76959885	    -45.00000000	    -45.00000000	  -4066.44154283	  -2623.61544673	    158.81171369	     31.85769193	    718.06413837	    151.27546876	     13.67844767	     15.08934336	     -0.71425008	     32.52426810	    -31.70106122	    -45.00000000	    -45.00000000	  -3872.82742188	  -1002.31278249	     27.61760468	     52.90151461	   1429.85763377	     34.30798276	     14.27205929	    -19.75554436
     11.11000000	    -34.78048113	    -22.73747190	     26.67240443	    -76.53385131	    850.00563565	    -44.00201305	     25.76255294	    -45.00000000	     38.90782578	    -45.00000000	    -45.00000000	  -4066.45645944	  -2623.50482600	    158.94606774	     31.69258743	    717.88732463	    151.28904321	     13.77876692	     15.24332992	     -0.67573506	     32.72273238	    -31.65214482	    -45.00000000	    -45.00000000	  -3873.00794871	  -1002.31012548	     27.50312792	     52.96206496	   1429.95636968	     34.52078978	     14.20747425	    -19.91959151
     11.12000000	    -34.86509708	    -22.67426107	     26.60628178	    -76.84666403	    850.63432209	    -44.14515056	     25.85731931	    -45.00000000	     38.64949202	    -45.00000000	    -45.00000000	  -4066.62797310	  -2623.58191239	    158.69510018	     31.58244148	    717.98162958	    151.29911330	     14.02550954	     14.94065341	     -0.79259155	     32.41333260	    -31.70850540	    -45.00000000	    -45.00000000	  -3872.77368860	  -1002.39707674	     27.78945344	     53.07340478	   1429.90177740	     34.74326288	     14.08250201	    -20.15749535
